<?xml version="1.0" encoding="UTF-8" standalone="no"?>
<!DOCTYPE svg PUBLIC "-//W3C//DTD SVG 1.1//EN"
 "http://www.w3.org/Graphics/SVG/1.1/DTD/svg11.dtd">
<!-- Generated by graphviz version 2.40.1 (20161225.0304)
 -->
<!-- Title: dependencies Pages: 1 -->
<svg width="628pt" height="290pt"
 viewBox="0.00 0.00 628.00 290.00" xmlns="http://www.w3.org/2000/svg" xmlns:xlink="http://www.w3.org/1999/xlink">
<g id="graph0" class="graph" transform="scale(1 1) rotate(0) translate(4 286)">
<title>dependencies</title>
<polygon fill="#ffffff" stroke="transparent" points="-4,4 -4,-286 624,-286 624,4 -4,4"/>
<text text-anchor="start" x="289.0091" y="-42.4" font-family="sans-serif" font-weight="bold" font-size="14.00" fill="#000000">Legend</text>
<polygon fill="#ffffb3" stroke="transparent" points="76,-10 76,-30 96,-30 96,-10 76,-10"/>
<text text-anchor="start" x="99.629" y="-15.4" font-family="sans-serif" font-size="14.00" fill="#000000"> &#160;Declarations</text>
<polygon fill="#8dd3c7" stroke="transparent" points="189,-10 189,-30 209,-30 209,-10 189,-10"/>
<text text-anchor="start" x="212.7251" y="-15.4" font-family="sans-serif" font-size="14.00" fill="#000000"> &#160;Module</text>
<polygon fill="#80b1d3" stroke="transparent" points="275,-10 275,-30 295,-30 295,-10 275,-10"/>
<text text-anchor="start" x="298.7812" y="-15.4" font-family="sans-serif" font-size="14.00" fill="#000000"> &#160;Bootstrap</text>
<polygon fill="#fdb462" stroke="transparent" points="372,-10 372,-30 392,-30 392,-10 372,-10"/>
<text text-anchor="start" x="395.6732" y="-15.4" font-family="sans-serif" font-size="14.00" fill="#000000"> &#160;Providers</text>
<polygon fill="#fb8072" stroke="transparent" points="468,-10 468,-30 488,-30 488,-10 468,-10"/>
<text text-anchor="start" x="491.7258" y="-15.4" font-family="sans-serif" font-size="14.00" fill="#000000"> &#160;Exports</text>
<g id="clust1" class="cluster">
<title>cluster_AppModule</title>
<polygon fill="none" stroke="#000000" stroke-dasharray="1,5" points="8,-70 8,-274 280,-274 280,-70 8,-70"/>
</g>
<g id="clust2" class="cluster">
<title>cluster_AppModule_declarations</title>
<polygon fill="none" stroke="#000000" points="16,-78 16,-130 138,-130 138,-78 16,-78"/>
</g>
<g id="clust4" class="cluster">
<title>cluster_AppModule_imports</title>
<polygon fill="none" stroke="#000000" points="146,-78 146,-130 272,-130 272,-78 146,-78"/>
</g>
<g id="clust6" class="cluster">
<title>cluster_AppModule_bootstrap</title>
<polygon fill="none" stroke="#000000" points="81,-214 81,-266 205,-266 205,-214 81,-214"/>
</g>
<g id="clust8" class="cluster">
<title>cluster_FilePondModule</title>
<polygon fill="none" stroke="#000000" stroke-dasharray="1,5" points="288,-138 288,-206 612,-206 612,-138 288,-138"/>
</g>
<g id="clust9" class="cluster">
<title>cluster_FilePondModule_declarations</title>
<polygon fill="none" stroke="#000000" points="456,-146 456,-198 604,-198 604,-146 456,-146"/>
</g>
<g id="clust12" class="cluster">
<title>cluster_FilePondModule_exports</title>
<polygon fill="none" stroke="#000000" points="296,-146 296,-198 448,-198 448,-146 296,-146"/>
</g>
<!-- AppComponent -->
<g id="node1" class="node">
<title>AppComponent</title>
<polygon fill="#ffffb3" stroke="#000000" points="129.9399,-122 24.0601,-122 24.0601,-86 129.9399,-86 129.9399,-122"/>
<text text-anchor="middle" x="77" y="-99.8" font-family="Times,serif" font-size="14.00" fill="#000000">AppComponent</text>
</g>
<!-- AppModule -->
<g id="node2" class="node">
<title>AppModule</title>
<polygon fill="#8dd3c7" stroke="#000000" points="184.6571,-190 181.6571,-194 160.6571,-194 157.6571,-190 101.3429,-190 101.3429,-154 184.6571,-154 184.6571,-190"/>
<text text-anchor="middle" x="143" y="-167.8" font-family="Times,serif" font-size="14.00" fill="#000000">AppModule</text>
</g>
<!-- AppComponent&#45;&gt;AppModule -->
<g id="edge1" class="edge">
<title>AppComponent&#45;&gt;AppModule</title>
<path fill="none" stroke="#000000" d="M115.4457,-122.2228C115.4457,-122.2228 115.4457,-143.7269 115.4457,-143.7269"/>
<polygon fill="#000000" stroke="#000000" points="111.9457,-143.7269 115.4457,-153.7269 118.9457,-143.727 111.9457,-143.7269"/>
</g>
<!-- AppComponent  -->
<g id="node4" class="node">
<title>AppComponent </title>
<polygon fill="#80b1d3" stroke="#000000" points="197.439,-258 88.561,-258 88.561,-222 197.439,-222 197.439,-258"/>
<text text-anchor="middle" x="143" y="-235.8" font-family="Times,serif" font-size="14.00" fill="#000000">AppComponent </text>
</g>
<!-- AppModule&#45;&gt;AppComponent  -->
<g id="edge3" class="edge">
<title>AppModule&#45;&gt;AppComponent </title>
<path fill="none" stroke="#000000" stroke-dasharray="1,5" d="M143,-190.2228C143,-190.2228 143,-211.7269 143,-211.7269"/>
<polygon fill="#000000" stroke="#000000" points="139.5001,-211.7269 143,-221.7269 146.5001,-211.727 139.5001,-211.7269"/>
</g>
<!-- FilePondModule -->
<g id="node3" class="node">
<title>FilePondModule</title>
<polygon fill="#8dd3c7" stroke="#000000" points="264.1109,-122 261.1109,-126 240.1109,-126 237.1109,-122 153.8891,-122 153.8891,-86 264.1109,-86 264.1109,-122"/>
<text text-anchor="middle" x="209" y="-99.8" font-family="Times,serif" font-size="14.00" fill="#000000">FilePondModule</text>
</g>
<!-- FilePondModule&#45;&gt;AppModule -->
<g id="edge2" class="edge">
<title>FilePondModule&#45;&gt;AppModule</title>
<path fill="none" stroke="#000000" d="M169.3864,-122.2228C169.3864,-122.2228 169.3864,-143.7269 169.3864,-143.7269"/>
<polygon fill="#000000" stroke="#000000" points="165.8865,-143.7269 169.3864,-153.7269 172.8865,-143.727 165.8865,-143.7269"/>
</g>
<!-- FilePondComponent  -->
<g id="node6" class="node">
<title>FilePondComponent </title>
<polygon fill="#fb8072" stroke="#000000" points="439.894,-190 304.106,-190 304.106,-154 439.894,-154 439.894,-190"/>
<text text-anchor="middle" x="372" y="-167.8" font-family="Times,serif" font-size="14.00" fill="#000000">FilePondComponent </text>
</g>
<!-- FilePondModule&#45;&gt;FilePondComponent  -->
<g id="edge5" class="edge">
<title>FilePondModule&#45;&gt;FilePondComponent </title>
<path fill="none" stroke="#000000" stroke-dasharray="5,2" d="M230.7625,-122.2228C230.7625,-142.3652 230.7625,-172 230.7625,-172 230.7625,-172 294.277,-172 294.277,-172"/>
<polygon fill="#000000" stroke="#000000" points="294.277,-175.5001 304.277,-172 294.2769,-168.5001 294.277,-175.5001"/>
</g>
<!-- FilePondComponent -->
<g id="node5" class="node">
<title>FilePondComponent</title>
<polygon fill="#ffffb3" stroke="#000000" points="595.8934,-190 464.1066,-190 464.1066,-154 595.8934,-154 595.8934,-190"/>
<text text-anchor="middle" x="530" y="-167.8" font-family="Times,serif" font-size="14.00" fill="#000000">FilePondComponent</text>
</g>
<!-- FilePondComponent&#45;&gt;FilePondModule -->
<g id="edge4" class="edge">
<title>FilePondComponent&#45;&gt;FilePondModule</title>
<path fill="none" stroke="#000000" d="M530,-153.7772C530,-133.6348 530,-104 530,-104 530,-104 274.1819,-104 274.1819,-104"/>
<polygon fill="#000000" stroke="#000000" points="274.1819,-100.5001 264.1819,-104 274.1818,-107.5001 274.1819,-100.5001"/>
</g>
</g>
</svg>
